<svg width="20" height="18" viewBox="0 0 20 18" fill="none" xmlns="http://www.w3.org/2000/svg">
<path fill-rule="evenodd" clip-rule="evenodd" d="M9.88013 2.01405C11.0249 0.77861 12.6287 0.0520888 14.3262 0C17.3273 0 19.7603 2.39588 19.7603 5.35135C19.7603 8.85038 15.8104 12.6852 13.4415 14.9851C13.2282 15.1921 13.0278 15.3868 12.8442 15.5676L10.5915 17.7859C10.4527 17.9228 10.2643 17.9998 10.0678 18H9.6924C9.49594 17.9998 9.30759 17.9228 9.16876 17.7859L6.91609 15.5676C6.73248 15.3868 6.53202 15.1921 6.31874 14.9851C3.94983 12.6852 0 8.85038 0 5.35135C0 2.39588 2.43292 0 5.43407 0C7.13157 0.0520888 8.73538 0.77861 9.88013 2.01405ZM9.90411 15.7871L12.0777 13.6758C14.0834 11.7298 17.8082 8.09093 17.8082 5.40553C17.8082 4.49728 17.4399 3.62665 16.7849 2.98717C16.13 2.34768 15.2428 1.99234 14.3205 2.00013C12.7845 2.14055 11.3979 2.96484 10.5562 4.23796C10.4619 4.35928 10.3161 4.43106 10.161 4.43256H9.71638C9.48555 4.43194 9.26748 4.32814 9.12358 4.15039C8.29523 2.9242 6.94741 2.13354 5.45805 2.00013C3.54822 2.00013 2 3.52478 2 5.40553C2 8.09093 5.72481 11.7298 7.73048 13.6758L9.90411 15.7871Z" fill="#0A0A0A"/>
</svg>
